# xmcd
#
# Track frame offsets:
#	150
#	14327
#	29681
#	42791
#	56338
#	70916
#	87510
#	105240
#	119305
#	134134
#	149006
#	163386
#	176081
#
# Disc length: 2764 seconds
#
# Revision: 13
# Processed by: cddbd v1.5.2PL0 Copyright (c) Steve Scherf et al.
# Submitted via: audiograbber 1.83.01
#
DISCID=c00aca0d
DTITLE=ANETT LOUISAN - teilzeithippie
DYEAR=2008
DGENRE=Chanson
TTITLE0=das schlechte gewissen
TTITLE1=sexy loverboy
TTITLE2=gekommem um zu sagen
TTITLE3=die siezgelegenheit
TTITLE4=ch brauch stoff
TTITLE5=ie nächste liebe meines lebens
TTITLE6=wir nicht
TTITLE7=drück die 1
TTITLE8=teilzeithippie
TTITLE9=gedanken lesen
TTITLE10=ich bin dagegen
TTITLE11=je später der abend
TTITLE12=auf dich hab ich gewartet
EXTD=YEAR: 2008
EXTT0=
EXTT1=
EXTT2=
EXTT3=
EXTT4=
EXTT5=
EXTT6=
EXTT7=
EXTT8=
EXTT9=
EXTT10=
EXTT11=
EXTT12=
PLAYORDER=
